<svg width="42" height="30" viewBox="0 0 42 30" fill="none" xmlns="http://www.w3.org/2000/svg">
<path d="M1.00003 3C2.20003 4 3.40003 5 6.00003 5C11 5 11 1 16 1C21.2 1 20.8 5 26 5C31 5 31 1 36 1C38.6 1 39.8 2 41 3" stroke="#C74D41" stroke-width="2" stroke-linecap="round" stroke-linejoin="round"/>
<path d="M1.00003 15C2.20003 16 3.40003 17 6.00003 17C11 17 11 13 16 13C21.2 13 20.8 17 26 17C31 17 31 13 36 13C38.6 13 39.8 14 41 15" stroke="#C74D41" stroke-width="2" stroke-linecap="round" stroke-linejoin="round"/>
<path d="M1.00003 27C2.20003 28 3.40003 29 6.00003 29C11 29 11 25 16 25C21.2 25 20.8 29 26 29C31 29 31 25 36 25C38.6 25 39.8 26 41 27" stroke="#C74D41" stroke-width="2" stroke-linecap="round" stroke-linejoin="round"/>
</svg>
