<svg width="42" height="47" viewBox="0 0 42 47" fill="none" xmlns="http://www.w3.org/2000/svg">
<path d="M18.7778 44.8399C19.4534 45.23 20.2198 45.4353 21 45.4353C21.7802 45.4353 22.5466 45.23 23.2222 44.8399L38.7778 35.951C39.4528 35.5613 40.0134 35.001 40.4034 34.3262C40.7935 33.6514 40.9992 32.8859 41 32.1066V14.3288C40.9992 13.5494 40.7935 12.7839 40.4034 12.1091C40.0134 11.4344 39.4528 10.874 38.7778 10.4843L23.2222 1.59544C22.5466 1.20536 21.7802 1 21 1C20.2198 1 19.4534 1.20536 18.7778 1.59544L3.22222 10.4843C2.54725 10.874 1.98662 11.4344 1.59658 12.1091C1.20654 12.7839 1.0008 13.5494 1 14.3288V32.1066C1.0008 32.8859 1.20654 33.6514 1.59658 34.3262C1.98662 35.001 2.54725 35.5613 3.22222 35.951L18.7778 44.8399Z" stroke="#C74D41" stroke-width="2" stroke-linecap="round" stroke-linejoin="round"/>
<path d="M21 45.4399V23.2177" stroke="#C74D41" stroke-width="2" stroke-linecap="round" stroke-linejoin="round"/>
<path d="M1.64453 12.1063L21.0001 23.2174L40.3556 12.1063" stroke="#C74D41" stroke-width="2" stroke-linecap="round" stroke-linejoin="round"/>
<path d="M11 6.03992L31 17.4844" stroke="#C74D41" stroke-width="2" stroke-linecap="round" stroke-linejoin="round"/>
</svg>
