<svg width="42" height="42" viewBox="0 0 42 42" fill="none" xmlns="http://www.w3.org/2000/svg">
<path d="M25.6279 10.0579C25.2423 10.4514 25.0263 10.9803 25.0263 11.5312C25.0263 12.0821 25.2423 12.6111 25.6279 13.0045L28.9955 16.3721C29.3889 16.7577 29.9179 16.9737 30.4688 16.9737C31.0197 16.9737 31.5486 16.7577 31.9421 16.3721L39.8768 8.4373C40.9352 10.776 41.2556 13.3818 40.7955 15.9072C40.3353 18.4327 39.1164 20.758 37.3013 22.5731C35.4861 24.3883 33.1608 25.6072 30.6353 26.0673C28.1099 26.5275 25.5041 26.2071 23.1654 25.1487L8.62184 39.6923C7.78453 40.5296 6.6489 41 5.46477 41C4.28064 41 3.14501 40.5296 2.3077 39.6923C1.47039 38.855 1 37.7194 1 36.5352C1 35.3511 1.47039 34.2155 2.3077 33.3782L16.8513 18.8346C15.7929 16.4959 15.4725 13.8901 15.9327 11.3647C16.3928 8.83918 17.6117 6.51392 19.4269 4.69875C21.242 2.88357 23.5673 1.66469 26.0928 1.20454C28.6182 0.744398 31.224 1.06484 33.5627 2.12316L25.649 10.0369L25.6279 10.0579Z" stroke="#C74D41" stroke-width="2" stroke-linecap="round" stroke-linejoin="round"/>
</svg>
