<svg width="42" height="40" viewBox="0 0 42 40" fill="none" xmlns="http://www.w3.org/2000/svg">
<path d="M41 11.3839V34.6839C41 35.7447 40.5786 36.7622 39.8284 37.5123C39.0783 38.2624 38.0609 38.6839 37 38.6839H5C3.93913 38.6839 2.92172 38.2624 2.17157 37.5123C1.42143 36.7622 1 35.7447 1 34.6839V11.3839C1.00322 10.5862 1.24488 9.80765 1.69392 9.14833C2.14297 8.48901 2.7789 7.97902 3.52 7.68387L19.52 1.28387C20.4704 0.905376 21.5296 0.905376 22.48 1.28387L38.48 7.68387C39.2211 7.97902 39.857 8.48901 40.3061 9.14833C40.7551 9.80765 40.9968 10.5862 41 11.3839Z" stroke="#C74D41" stroke-width="2" stroke-linecap="round" stroke-linejoin="round"/>
<path d="M9.00006 30.684H33.0001" stroke="#C74D41" stroke-width="2" stroke-linecap="round" stroke-linejoin="round"/>
<path d="M9.00006 22.6841H33.0001" stroke="#C74D41" stroke-width="2" stroke-linecap="round" stroke-linejoin="round"/>
<path d="M33.0001 14.6838H9.00006V38.6838H33.0001V14.6838Z" stroke="#C74D41" stroke-width="2" stroke-linecap="round" stroke-linejoin="round"/>
</svg>
