<svg width="47" height="42" viewBox="0 0 47 42" fill="none" xmlns="http://www.w3.org/2000/svg">
<path d="M18.7779 38.7777L16.0001 33.2222L9.88904 34.3333" stroke="#C74D41" stroke-width="2" stroke-linecap="round" stroke-linejoin="round"/>
<path d="M18.7779 3.22217L16.0001 8.77772L9.88904 7.66661" stroke="#C74D41" stroke-width="2" stroke-linecap="round" stroke-linejoin="round"/>
<path d="M27.6667 38.7777L30.4444 33.2222L36.5555 34.3333" stroke="#C74D41" stroke-width="2" stroke-linecap="round" stroke-linejoin="round"/>
<path d="M27.6667 3.22217L30.4444 8.77772L36.5555 7.66661" stroke="#C74D41" stroke-width="2" stroke-linecap="round" stroke-linejoin="round"/>
<path d="M34.3335 41.0002L27.6668 27.6669H18.7779" stroke="#C74D41" stroke-width="2" stroke-linecap="round" stroke-linejoin="round"/>
<path d="M34.3333 1.00024L27.6667 14.3336L31 21.0002" stroke="#C74D41" stroke-width="2" stroke-linecap="round" stroke-linejoin="round"/>
<path d="M1 21.0003H15.4444L18.7778 14.3336" stroke="#C74D41" stroke-width="2" stroke-linecap="round" stroke-linejoin="round"/>
<path d="M41 16.5555L37.6667 21L41 25.4444" stroke="#C74D41" stroke-width="2" stroke-linecap="round" stroke-linejoin="round"/>
<path d="M45.4444 21.0002H31L27.6667 27.6669" stroke="#C74D41" stroke-width="2" stroke-linecap="round" stroke-linejoin="round"/>
<path d="M5.44458 16.5555L8.77791 21L5.44458 25.4444" stroke="#C74D41" stroke-width="2" stroke-linecap="round" stroke-linejoin="round"/>
<path d="M12.1112 41.0002L18.7779 27.6669L15.4446 21.0002" stroke="#C74D41" stroke-width="2" stroke-linecap="round" stroke-linejoin="round"/>
<path d="M12.1112 1.00024L18.7779 14.3336H27.6668" stroke="#C74D41" stroke-width="2" stroke-linecap="round" stroke-linejoin="round"/>
</svg>
