<svg width="36" height="40" viewBox="0 0 36 40" fill="none" xmlns="http://www.w3.org/2000/svg">
<path d="M0 19.9819C0 31.2579 8.47769 36.7319 13.7975 39.0539C15.2394 39.6839 15.9614 39.9999 17.9993 39.9999V11.9999L0 17.9999V19.9819Z" fill="#3086B6"/>
<path d="M22.2012 39.054C27.521 36.73 35.9987 31.26 35.9987 19.982V18L17.9993 12V40C20.0393 40 20.7593 39.684 22.2012 39.054ZM11.6756 1.61L10.5296 2C4.51584 4.06 1.50995 5.09 0.755973 6.164C5.96025e-08 7.24 0 10.44 0 16.834V18L17.9993 12V0C16.3774 0 14.8095 0.536 11.6756 1.61Z" fill="#57BBF9"/>
<path d="M25.4697 2L24.3238 1.61C21.1899 0.536 19.6239 0 18 0V12L35.9993 18V16.834C35.9993 10.438 35.9993 7.24 35.2434 6.164C34.4894 5.09 31.4835 4.058 25.4697 2Z" fill="#3086B6"/>
</svg>
