<svg width="120" height="120" viewBox="0 0 120 120" fill="none" xmlns="http://www.w3.org/2000/svg">
<path d="M49.0263 42.0012L49.0263 78.0022C49.0275 78.3667 49.128 78.724 49.3171 79.0356C49.5062 79.3472 49.7767 79.6014 50.0994 79.7707C50.4222 79.94 50.7851 80.0181 51.1489 79.9965C51.5128 79.9749 51.8639 79.8545 52.1644 79.6483L78.1651 61.6478C79.2432 60.9017 79.2432 59.1057 78.1651 58.3577L52.1644 40.3572C51.8645 40.1488 51.5132 40.0266 51.1488 40.0039C50.7843 39.9811 50.4206 40.0587 50.0971 40.2282C49.7737 40.3976 49.5028 40.6525 49.314 40.9651C49.1252 41.2777 49.0257 41.636 49.0263 42.0012Z" fill="white"/>
<circle cx="60" cy="60" r="59.5" stroke="white"/>
</svg>
