<svg width="120" height="25" viewBox="0 0 120 25" fill="none" xmlns="http://www.w3.org/2000/svg">
<g clip-path="url(#clip0_15_48)">
<path d="M34.4375 6.93188C34.4375 7.14636 34.5228 7.35206 34.6744 7.50373C34.8261 7.65539 35.0318 7.74059 35.2463 7.74059H41.5589C42.021 7.74059 42.4831 7.3293 42.6449 6.50672L43.2688 3.58609C43.6939 1.61282 42.4231 0 40.4498 0H10.4117C9.39518 0.0460515 8.42101 0.42044 7.6353 1.06701C6.84958 1.71357 6.29469 2.59746 6.05384 3.58609L4.35784 11.2158C3.84026 13.4987 5.39762 15.6799 8.60477 15.6799H31.3921C31.5522 15.6698 31.7126 15.6927 31.8634 15.747C32.0143 15.8013 32.1524 15.886 32.2693 15.9958C32.3862 16.1055 32.4794 16.2381 32.543 16.3852C32.6067 16.5324 32.6396 16.691 32.6396 16.8514C32.6396 17.0117 32.6067 17.1704 32.543 17.3175C32.4794 17.4647 32.3862 17.5972 32.2693 17.707C32.1524 17.8168 32.0143 17.9014 31.8634 17.9558C31.7126 18.0101 31.5522 18.0329 31.3921 18.0229H1.51115L0 24.8022H33.7351C36.9238 24.8022 39.2806 22.1358 39.6688 20.315L41.2678 12.5143C41.8084 9.65841 38.9941 8.43378 37.0208 8.43378H14.2103C13.9663 8.41687 13.7378 8.30801 13.5709 8.12917C13.4041 7.95034 13.3113 7.71485 13.3113 7.47025C13.3113 7.22565 13.4041 6.99016 13.5709 6.81133C13.7378 6.63249 13.9663 6.52363 14.2103 6.50672H33.9939C34.0516 6.50285 34.1095 6.51105 34.1638 6.5308C34.2182 6.55054 34.2678 6.58141 34.3095 6.62142C34.3513 6.66142 34.3842 6.70969 34.4063 6.76315C34.4283 6.81661 34.439 6.87407 34.4375 6.93188Z" fill="black"/>
<path d="M117.107 0H86.9396C85.9225 0.0458152 84.9477 0.420029 84.1612 1.06655C83.3747 1.71308 82.8189 2.59709 82.5771 3.58609L80.1787 14.7603C80.1787 14.9748 80.2639 15.1805 80.4156 15.3321C80.5672 15.4838 80.7729 15.569 80.9874 15.569H84.7815C85.2436 15.569 85.7057 15.1623 85.8675 14.3397L87.4849 8.18423C87.5972 7.72547 87.8552 7.31544 88.2201 7.01553C88.585 6.71563 89.0372 6.54198 89.509 6.52058H110.161C110.459 6.53931 110.739 6.67088 110.943 6.88852C111.148 7.10616 111.262 7.3935 111.262 7.69207C111.262 7.99064 111.148 8.27798 110.943 8.49562C110.739 8.71326 110.459 8.84483 110.161 8.86356H89.7909C89.3184 8.88522 88.8658 9.05954 88.5008 9.36034C88.1358 9.66115 87.8783 10.0722 87.7668 10.5318L86.9673 14.0301C86.9101 14.2284 86.9007 14.4373 86.9401 14.6399C86.9794 14.8425 87.0662 15.0328 87.1935 15.1952C87.3207 15.3576 87.4847 15.4875 87.6719 15.5742C87.8592 15.6609 88.0643 15.7019 88.2705 15.6938H107.966C108.264 15.7125 108.544 15.8441 108.748 16.0617C108.953 16.2793 109.066 16.5667 109.066 16.8653C109.066 17.1638 108.953 17.4512 108.748 17.6688C108.544 17.8864 108.264 18.018 107.966 18.0367H48.1349C47.9287 18.0446 47.7235 18.0035 47.5362 17.9168C47.3489 17.8301 47.1847 17.7004 47.0572 17.5381C46.9296 17.3759 46.8423 17.1857 46.8023 16.9832C46.7623 16.7807 46.7708 16.5717 46.8271 16.3731L48.5878 8.1981C48.7002 7.73933 48.9581 7.3293 49.323 7.0294C49.6879 6.72949 50.1401 6.55584 50.6119 6.53445H74.453C74.5105 6.53053 74.5681 6.53873 74.6222 6.55852C74.6763 6.57831 74.7257 6.60925 74.7671 6.64933C74.8085 6.68941 74.841 6.73775 74.8625 6.7912C74.884 6.84465 74.8941 6.90202 74.892 6.9596L74.721 8.48462C74.721 8.6991 74.8062 8.9048 74.9579 9.05647C75.1095 9.20813 75.3152 9.29333 75.5297 9.29333H79.3238C79.7859 9.29333 80.248 8.88666 80.4098 8.06408L81.3895 3.59995C81.7961 1.61282 80.5438 0 78.5613 0H48.5231C47.5066 0.0460515 46.5325 0.42044 45.7468 1.06701C44.961 1.71357 44.4061 2.59746 44.1653 3.58609L40.3944 21.2115C39.9692 23.1848 41.2354 24.8022 43.2087 24.8022H111.802C112.819 24.7554 113.794 24.3803 114.581 23.733C115.367 23.0857 115.923 22.201 116.164 21.2115L117.31 15.7585C117.68 14.044 116.77 12.6021 115.235 12.2509C116.107 12.0621 116.907 11.633 117.547 11.0122C118.186 10.3914 118.639 9.60384 118.854 8.73878L119.921 3.58609C120.347 1.61282 119.08 0 117.107 0Z" fill="black"/>
</g>
<defs>
<clipPath id="clip0_15_48">
<rect width="120" height="24.8022" fill="white"/>
</clipPath>
</defs>
</svg>
