<svg width="120" height="34" viewBox="0 0 120 34" fill="none" xmlns="http://www.w3.org/2000/svg">
<g clip-path="url(#clip0_15_56)">
<path d="M20.327 0V8.82087C22.1635 6.8313 24.1948 5.56522 26.5878 4.42435V12.4939H24.6261V7.69391C22.4974 9.14087 20.3548 11.4504 20.3409 12.5078L18.3652 12.4939V0H20.327Z" fill="black"/>
<path d="M33.1687 12.5635L27.3809 12.4522C29.6904 8.41742 31.4435 6.48351 35.7426 4.42438V12.4939H33.7669V7.72177C32.6678 8.52873 31.6522 9.5722 30.8869 10.56L32.2087 10.5879L33.1687 12.5635Z" fill="black"/>
<path d="M38.4835 0H36.5078V12.4939H38.4835V0Z" fill="black"/>
<path d="M110.664 4.32695H116.536L115.52 6.30261H111.471C112.376 8.12522 113.614 9.53043 115.144 10.5461H120.014V22.4974C111.569 21.4261 104.71 22.0661 97.3078 26.5183C86.4974 21.0226 75.5896 18.4904 65.8643 27.5478L64.5009 26.5322C63.0678 29.287 61.3843 31.2904 59.1722 33.447C57.28 31.2904 55.5687 29.1061 54.1496 26.5878L52.5357 27.9513C43.4783 18.0452 32.6122 20.8557 21.9548 26.3096C14.7896 21.7322 8.25043 21.1896 0 22.567V10.7409H5.09217C8.09739 9.47478 10.5322 8.01391 12.4243 6.34435L5.56522 6.12174C5.66261 1.19652 10.9496 -1.75305 15.0539 1.19652L13.44 2.21217C10.9774 1.08522 8.77913 2.21217 7.93043 4.22956L17.0991 4.52174C13.5374 8.55652 10.5878 10.6017 5.49565 12.7165H1.97565V20.2574C9.50261 19.2139 16.2087 20.4661 22.0522 24.0417C34.9356 17.5722 45.287 17.767 52.6887 25.2243L54.7339 23.4991C56.0417 26.0313 57.433 28.3548 59.2556 30.553C61.273 28.3687 62.4974 26.1843 63.7217 23.513L65.7113 24.9878C73.7809 17.9478 84.3965 17.8783 97.2104 24.2643C103.235 20.7861 110.177 19.4783 118.024 20.2713V12.5078H114.56C110.094 9.72522 108.188 4.96695 107.826 0.0695636H109.788C109.955 1.65565 110.247 3.06087 110.664 4.32695Z" fill="black"/>
<path d="M41.5861 0H39.6105V12.4939H41.5861V0Z" fill="black"/>
<path d="M47.1373 4.1322C49.6139 4.1322 51.6173 6.13568 51.6173 8.6122C51.6173 11.0887 49.6139 13.0922 47.1373 13.0922C44.6608 13.0922 42.6573 11.0887 42.6573 8.6122C42.6573 6.14959 44.6608 4.1322 47.1373 4.1322ZM47.1373 6.10785C45.746 6.10785 44.633 7.23481 44.633 8.6122C44.633 10.0035 45.76 11.1165 47.1373 11.1165C48.5287 11.1165 49.6417 9.98959 49.6417 8.6122C49.6417 7.23481 48.5147 6.10785 47.1373 6.10785Z" fill="black"/>
<path d="M72.0417 11.047C75.047 9.78087 78.4557 8.01391 80.3617 6.34435L73.4748 6.12174C73.5722 1.19652 78.8591 -1.75305 82.9635 1.19652L81.3496 2.21217C78.887 1.08522 76.6887 2.19826 75.84 4.21565L85.287 4.50782C81.7252 8.54261 78.2887 10.6852 73.1826 12.7861L72.0417 11.047Z" fill="black"/>
<path d="M54.3443 4.3548V9.53045C56.1391 8.11132 57.6974 6.67828 58.7826 4.3548H60.7582V9.53045C62.553 8.11132 63.9721 6.74784 65.1965 4.42436H67.0191C65.8643 8.26436 62.5113 10.88 58.7826 13.1896V7.90262C57.1687 9.97567 54.8591 11.6591 52.3826 13.2035V4.3548H54.3443Z" fill="black"/>
<path d="M88.9044 12.5635L94.6922 12.4522C92.3826 8.41742 90.6296 6.48351 86.3304 4.42438V16.5705H88.3061V7.72177C89.4052 8.52873 90.4209 9.5722 91.1861 10.56L89.8644 10.5879L88.9044 12.5635Z" fill="black"/>
<path d="M108.744 7.55481C107.506 6.3722 106.017 5.4122 103.958 4.42438V12.4939H105.934V7.72177C106.518 8.15307 107.089 8.65394 107.603 9.18264L108.744 7.55481Z" fill="black"/>
<path d="M98.6991 4.1322C101.176 4.1322 103.179 6.13568 103.179 8.6122C103.179 11.0887 101.176 13.0922 98.6991 13.0922C96.2226 13.0922 94.2191 11.0887 94.2191 8.6122C94.2191 6.14959 96.2226 4.1322 98.6991 4.1322ZM98.6991 6.10785C97.3078 6.10785 96.1948 7.23481 96.1948 8.6122C96.1948 10.0035 97.3217 11.1165 98.6991 11.1165C100.09 11.1165 101.203 9.98959 101.203 8.6122C101.203 7.23481 100.077 6.10785 98.6991 6.10785Z" fill="black"/>
</g>
<defs>
<clipPath id="clip0_15_56">
<rect width="120" height="33.433" fill="white"/>
</clipPath>
</defs>
</svg>
