<svg width="64" height="62" viewBox="0 0 64 62" fill="none" xmlns="http://www.w3.org/2000/svg">
<path d="M63.8433 22.991C63.6586 22.4235 63.3188 21.9191 62.8625 21.5346C62.4062 21.1501 61.8514 20.9008 61.2609 20.8149L43.024 18.1653L34.8704 1.64048C34.5919 1.12722 34.1757 0.701912 33.6686 0.412444C33.1614 0.122976 32.5835 -0.0191498 32 0.00207227V52.0983L48.3105 60.6711C48.8389 60.9489 49.4346 61.0734 50.0301 61.0304C50.6256 60.9874 51.1972 60.7786 51.6803 60.4277C52.1634 60.0768 52.5386 59.5978 52.7637 59.0448C52.9887 58.4917 53.0545 57.8868 52.9537 57.2983L49.8401 39.135L63.0337 26.271C63.4612 25.8542 63.7636 25.3261 63.9066 24.7465C64.0497 24.1669 64.0278 23.5588 63.8433 22.991Z" fill="#57BBF9"/>
<path d="M29.1306 1.64059L20.977 18.1655L2.74014 20.8151C2.1491 20.9009 1.59387 21.1504 1.13727 21.5354C0.680669 21.9204 0.340919 22.4255 0.156456 22.9935C-0.0280076 23.5615 -0.0498222 24.1699 0.0934794 24.7497C0.236781 25.3295 0.53948 25.8576 0.967331 26.2743L14.161 39.1351L11.0474 57.2984C10.947 57.8865 11.0129 58.4909 11.2379 59.0434C11.4628 59.596 11.8377 60.0746 12.3202 60.4254C12.8028 60.7762 13.3738 60.9851 13.9687 61.0285C14.5637 61.0719 15.159 60.9482 15.6874 60.6712L32.001 52.0952V0.0565889C31.426 0.0472298 30.8585 0.188509 30.3549 0.46639C29.8514 0.744271 29.4293 1.14908 29.1306 1.64059Z" fill="#3086B6"/>
</svg>
